#!OML:ASF X:\für Bonn\!DataBase\2005_08_11_Bastian_Final\c3d\Bastian.ASF
:FULLY-SPECIFIED
:DEGREES
481
root -2.38228 1.19851 21.5302 -1003.9 -1.91859 -179.186
lowerback 12.7721 -0.46732 0.985212
upperback 13.8991 -2.50512 1.38488
thorax 7.73905 -2.25815 0.930726
lowerneck 0.206974 -3.38125 -9.24982
upperneck 9.47295 -5.10817 5.51462
head 3.15786 -2.82093 3.01887
rclavicle -1.90833e-014 3.8763e-014
rhumerus -59.5943 62.0462 -104.519
rradius 33.3535
rwrist -11.1857
rhand -15.3376 0.772452
rfingers 7.12502
rthumb 10.8391 -28.9278
lclavicle -1.90833e-014 3.8763e-014
lhumerus -51.712 -54.7985 104.826
lradius 32.1939
lwrist 25.2875
lhand -15.8671 -5.87787
lfingers 7.12502
lthumb 10.3284 23.8485
rfemur 5.42721 5.30542 24.4699
rtibia 31.1496
rfoot -18.0927 -30.7799
rtoes -2.06753
lfemur 5.7813 -4.14598 -18.2665
ltibia 24.4747
lfoot 11.1837 -3.25042
ltoes -8.81295
482
root -2.38396 1.19861 21.5285 -1003.9 -1.91034 -179.128
lowerback 12.7896 -0.487745 0.957874
upperback 13.7526 -2.49702 1.36481
thorax 7.56026 -2.23629 0.93252
lowerneck -0.0923372 -3.45182 -9.16691
upperneck 9.37974 -5.16154 5.54814
head 3.18191 -2.83036 3.00842
rclavicle 3.10104e-014 -3.20043e-014
rhumerus -59.7543 61.8265 -104.836
rradius 32.9756
rwrist -11.0398
rhand -15.3958 0.739916
rfingers 7.12502
rthumb 10.783 -28.9633
lclavicle 3.10104e-014 -3.20043e-014
lhumerus -52.0103 -54.8918 105.312
lradius 31.963
lwrist 25.4428
lhand -15.7517 -5.63373
lfingers 7.12502
lthumb 10.4397 24.0871
rfemur 5.45988 5.53166 24.5627
rtibia 31.1327
rfoot -18.3148 -30.8277
rtoes -1.61743
lfemur 5.76603 -4.22861 -18.3077
ltibia 24.4799
lfoot 11.2347 -3.35292
ltoes -8.86451
483
root -2.38606 1.19919 21.5279 -1003.89 -1.91125 -179.104
lowerback 12.7988 -0.492155 0.916443
upperback 13.5991 -2.46811 1.36254
thorax 7.37962 -2.2054 0.959677
lowerneck -0.319275 -3.51422 -9.16123
upperneck 9.24621 -5.212 5.62542
head 3.1848 -2.84043 3.02554
rclavicle 1.27222e-014 -9.93923e-015
rhumerus -59.82 61.5511 -105.002
rradius 32.6226
rwrist -10.8279
rhand -15.3619 0.671133
rfingers 7.12502
rthumb 10.8157 -29.0304
lclavicle 1.27222e-014 -9.93923e-015
lhumerus -52.2027 -54.8417 105.715
lradius 31.6668
lwrist 25.4328
lhand -15.6938 -5.45485
lfingers 7.12502
lthumb 10.4955 24.2631
rfemur 5.47068 5.65573 24.5995
rtibia 31.1147
rfoot -18.4473 -30.787
rtoes -1.31025
lfemur 5.74024 -4.28404 -18.3466
ltibia 24.4853
lfoot 11.309 -3.46162
ltoes -8.80286
484
root -2.38747 1.19927 21.5259 -1003.9 -1.91048 -179.053
lowerback 12.83 -0.512773 0.873799
upperback 13.4609 -2.46539 1.34908
thorax 7.20491 -2.18993 0.977174
lowerneck -0.604875 -3.57305 -9.10629
upperneck 9.15271 -5.25195 5.65915
head 3.20631 -2.84496 3.02032
rclavicle -8.74653e-015 -8.74653e-015
rhumerus -59.9191 61.3049 -105.208
rradius 32.2788
rwrist -10.5994
rhand -15.4244 0.67499
rfingers 7.12502
rthumb 10.7554 -29.0297
lclavicle -8.74653e-015 -8.74653e-015
lhumerus -52.4309 -54.8557 106.134
lradius 31.4198
lwrist 25.6357
lhand -15.6447 -5.19301
lfingers 7.12502
lthumb 10.5429 24.5226
rfemur 5.50825 5.82835 24.6585
rtibia 31.1024
rfoot -18.6711 -30.7648
rtoes -0.663934
lfemur 5.73629 -4.30692 -18.378
ltibia 24.4863
lfoot 11.39 -3.62509
ltoes -8.9771
485
root -2.38915 1.20007 21.5245 -1003.89 -1.89084 -179.047
lowerback 12.8308 -0.512066 0.851218
upperback 13.3201 -2.43176 1.34273
thorax 7.04352 -2.15648 0.987892
lowerneck -0.82788 -3.63335 -9.05871
upperneck 9.04362 -5.30536 5.73015
head 3.21485 -2.85728 3.0284
rclavicle -8.74653e-015 -3.57812e-015
rhumerus -60.0258 61.0384 -105.412
rradius 31.971
rwrist -10.4093
rhand -15.4388 0.626007
rfingers 7.12502
rthumb 10.7415 -29.0794
lclavicle -8.74653e-015 -3.57812e-015
lhumerus -52.6762 -54.9032 106.586
lradius 31.1398
lwrist 25.8339
lhand -15.6349 -4.94888
lfingers 7.12502
lthumb 10.5523 24.7662
rfemur 5.51723 5.96309 24.7243
rtibia 31.0891
rfoot -18.7131 -30.7427
rtoes -0.493956
lfemur 5.71695 -4.36453 -18.3985
ltibia 24.4882
lfoot 11.4381 -3.69518
ltoes -9.03053
486
root -2.39031 1.20055 21.5239 -1003.88 -1.91351 -179.011
lowerback 12.8342 -0.51581 0.778482
upperback 13.1895 -2.40966 1.32883
thorax 6.89414 -2.13371 1.0188
lowerneck -1.03572 -3.68955 -9.01093
upperneck 8.92117 -5.35251 5.78143
head 3.216 -2.86723 3.031
rclavicle 1.90833e-014 -3.16068e-014
rhumerus -60.1862 60.832 -105.652
rradius 31.6977
rwrist -10.2307
rhand -15.4995 0.591468
rfingers 7.12502
rthumb 10.6829 -29.1169
lclavicle 1.90833e-014 -3.16068e-014
lhumerus -52.8052 -54.9204 106.953
lradius 30.8102
lwrist 26.1051
lhand -15.5888 -4.71373
lfingers 7.12502
lthumb 10.5968 24.9991
rfemur 5.51514 5.97053 24.6958
rtibia 31.0783
rfoot -18.7455 -30.6172
rtoes -0.174495
lfemur 5.69634 -4.40568 -18.4542
ltibia 24.4899
lfoot 11.5014 -3.82332
ltoes -9.00071
487
root -2.39184 1.20046 21.5221 -1003.88 -1.89138 -178.972
lowerback 12.8541 -0.530108 0.731962
upperback 13.0613 -2.40385 1.33708
thorax 6.73957 -2.11981 1.05988
lowerneck -1.25191 -3.72825 -8.95134
upperneck 8.84283 -5.37642 5.80123
head 3.22894 -2.86753 3.02257
rclavicle 3.97569e-015 1.90833e-014
rhumerus -60.3602 60.6476 -105.898
rradius 31.427
rwrist -10.0981
rhand -15.5878 0.591996
rfingers 7.12502
rthumb 10.5978 -29.1208
lclavicle 3.97569e-015 1.90833e-014
lhumerus -52.9949 -54.9982 107.408
lradius 30.4781
lwrist 26.4959
lhand -15.6018 -4.49302
lfingers 7.12502
lthumb 10.5843 25.2205
rfemur 5.52394 6.00656 24.7302
rtibia 31.0694
rfoot -18.7936 -30.5557
rtoes 0.0367931
lfemur 5.68507 -4.47016 -18.474
ltibia 24.4892
lfoot 11.5851 -3.94246
ltoes -9.14087
488
root -2.39255 1.20112 21.5212 -1003.88 -1.89224 -178.951
lowerback 12.8799 -0.528011 0.676121
upperback 12.9228 -2.3729 1.32841
thorax 6.56945 -2.09138 1.08726
lowerneck -1.45288 -3.77671 -8.88805
upperneck 8.79056 -5.42163 5.84655
head 3.24924 -2.87936 3.02049
rclavicle -2.62396e-014 5.96354e-015
rhumerus -60.506 60.3828 -106.102
rradius 31.1398
rwrist -9.84548
rhand -15.6785 0.594252
rfingers 7.12502
rthumb 10.5103 -29.123
lclavicle -2.62396e-014 5.96354e-015
lhumerus -53.2621 -55.1492 107.933
lradius 30.1369
lwrist 27.0393
lhand -15.6443 -4.25335
lfingers 7.12502
lthumb 10.5433 25.4622
rfemur 5.54534 6.13633 24.7709
rtibia 31.0593
rfoot -18.8916 -30.5453
rtoes 0.218734
lfemur 5.67413 -4.50243 -18.5003
ltibia 24.4888
lfoot 11.6561 -4.06185
ltoes -9.11425
489
root -2.39387 1.20086 21.5202 -1003.85 -1.89359 -178.928
lowerback 12.8703 -0.535505 0.620052
upperback 12.8002 -2.35812 1.31705
thorax 6.43702 -2.07219 1.1108
lowerneck -1.71025 -3.8142 -8.81901
upperneck 8.74452 -5.44481 5.87666
head 3.27859 -2.87893 3.01259
rclavicle -2.3059e-014 2.80286e-014
rhumerus -60.6688 60.2222 -106.354
rradius 30.8922
rwrist -9.74558
rhand -15.7659 0.584528
rfingers 7.12502
rthumb 10.426 -29.137
lclavicle -2.3059e-014 2.80286e-014
lhumerus -53.5385 -55.3867 108.505
lradius 29.7951
lwrist 27.7537
lhand -15.7315 -4.0047
lfingers 7.12502
lthumb 10.4592 25.7151
rfemur 5.51705 6.10464 24.7488
rtibia 31.0485
rfoot -18.869 -30.4633
rtoes 0.379135
lfemur 5.63537 -4.54828 -18.5374
ltibia 24.4908
lfoot 11.7117 -4.16992
ltoes -9.30699
490
root -2.39435 1.20109 21.5194 -1003.84 -1.89209 -178.896
lowerback 12.882 -0.540262 0.563356
upperback 12.6751 -2.34024 1.311
thorax 6.29081 -2.05204 1.1409
lowerneck -1.97183 -3.84924 -8.77429
upperneck 8.74189 -5.46965 5.93008
head 3.32302 -2.88068 3.01525
rclavicle 8.74653e-015 -3.18055e-015
rhumerus -60.8485 60.0367 -106.597
rradius 30.6481
rwrist -9.56399
rhand -15.8447 0.622358
rfingers 7.12502
rthumb 10.3499 -29.1029
lclavicle 8.74653e-015 -3.18055e-015
lhumerus -53.8225 -55.6243 109.093
lradius 29.3886
lwrist 28.5785
lhand -15.8216 -3.84491
lfingers 7.12502
lthumb 10.3723 25.8793
rfemur 5.52281 6.15182 24.7612
rtibia 31.0348
rfoot -18.9051 -30.4921
rtoes 0.457189
lfemur 5.61072 -4.58137 -18.5589
ltibia 24.4914
lfoot 11.7996 -4.26815
ltoes -9.05572
491
root -2.39506 1.20114 21.5178 -1003.83 -1.8649 -178.882
lowerback 12.8792 -0.547006 0.540495
upperback 12.5528 -2.32335 1.30497
thorax 6.1549 -2.03002 1.1514
lowerneck -2.19708 -3.88224 -8.69386
upperneck 8.69768 -5.49283 5.95887
head 3.34726 -2.88131 3.00569
rclavicle -3.97569e-015 1.53064e-014
rhumerus -61.1454 59.9356 -106.969
rradius 30.4555
rwrist -9.55427
rhand -15.9307 0.615177
rfingers 7.12502
rthumb 10.267 -29.1142
lclavicle -3.97569e-015 1.53064e-014
lhumerus -54.0381 -55.8666 109.626
lradius 28.9276
lwrist 29.4645
lhand -15.9211 -3.67089
lfingers 7.12502
lthumb 10.2762 26.0581
rfemur 5.52302 6.23223 24.8203
rtibia 31.026
rfoot -18.9864 -30.5448
rtoes 0.464516
lfemur 5.58996 -4.65147 -18.563
ltibia 24.4893
lfoot 11.8559 -4.3364
ltoes -8.94942
492
root -2.39589 1.20102 21.517 -1003.83 -1.8712 -178.859
lowerback 12.8913 -0.547777 0.497061
upperback 12.451 -2.30344 1.28089
thorax 6.03387 -2.0095 1.15379
lowerneck -2.48297 -3.91735 -8.61064
upperneck 8.69264 -5.51716 5.99679
head 3.39354 -2.88162 2.99689
rclavicle 2.0276e-014 -4.77083e-015
rhumerus -61.2121 59.7495 -107.131
rradius 30.2379
rwrist -9.39631
rhand -15.9774 0.593776
rfingers 7.12502
rthumb 10.2219 -29.1379
lclavicle 2.0276e-014 -4.77083e-015
lhumerus -54.1307 -56.0727 110.042
lradius 28.4068
lwrist 30.3844
lhand -16.0111 -3.53051
lfingers 7.12502
lthumb 10.1894 26.2027
rfemur 5.53676 6.25487 24.8125
rtibia 31.0138
rfoot -18.9964 -30.5752
rtoes 0.45009
lfemur 5.57988 -4.68509 -18.5973
ltibia 24.4894
lfoot 11.9325 -4.44226
ltoes -8.88023
493
root -2.39639 1.2011 21.5164 -1003.82 -1.89053 -178.834
lowerback 12.8754 -0.548912 0.424828
upperback 12.3491 -2.28662 1.27321
thorax 5.92988 -1.99298 1.18864
lowerneck -2.79087 -3.94643 -8.53371
upperneck 8.7157 -5.5275 5.98569
head 3.44989 -2.8765 2.97413
rclavicle -4.57205e-014 3.598e-014
rhumerus -61.5514 59.7316 -107.543
rradius 30.0714
rwrist -9.4325
rhand -16.0774 0.55173
rfingers 7.12502
rthumb 10.1255 -29.1846
lclavicle -4.57205e-014 3.598e-014
lhumerus -54.5621 -56.4868 110.798
lradius 28.0612
lwrist 31.7286
lhand -16.201 -3.22562
lfingers 7.12502
lthumb 10.0062 26.5165
rfemur 5.52774 6.27417 24.7943
rtibia 31.0073
rfoot -18.9636 -30.6307
rtoes 0.186093
lfemur 5.56185 -4.73579 -18.6545
ltibia 24.4818
lfoot 11.9769 -4.57777
ltoes -9.25832
